<svg width="24" height="24" viewBox="0 0 24 24" fill="none" xmlns="http://www.w3.org/2000/svg">
<g clip-path="url(#clip0_2_1590)">
<path d="M23.9888 12.2245C23.9888 11.2413 23.9071 10.5237 23.7304 9.77963H12.2393V14.2176H18.9843C18.8484 15.3205 18.114 16.9815 16.4821 18.0976L16.4592 18.2461L20.0925 20.9963L20.3442 21.0209C22.656 18.9347 23.9888 15.8653 23.9888 12.2245Z" fill="#4285F4"/>
<path d="M12.2393 23.9176C15.5438 23.9176 18.3179 22.8545 20.3442 21.0209L16.4821 18.0976C15.4486 18.8018 14.0615 19.2934 12.2393 19.2934C9.00273 19.2934 6.25576 17.2074 5.27654 14.324L5.13301 14.3359L1.35507 17.1927L1.30566 17.3269C3.31829 21.2334 7.45238 23.9176 12.2393 23.9176Z" fill="#34A853"/>
<path d="M5.27634 14.324C5.01797 13.5799 4.86844 12.7826 4.86844 11.9588C4.86844 11.1349 5.01797 10.3377 5.26275 9.5936L5.25591 9.43513L1.43062 6.53241L1.30547 6.59058C0.475969 8.21168 0 10.0321 0 11.9588C0 13.8855 0.475969 15.7058 1.30547 17.3269L5.27634 14.324Z" fill="#FBBC05"/>
<path d="M12.2393 4.62403C14.5374 4.62403 16.0877 5.59402 16.9717 6.40461L20.4258 3.10928C18.3044 1.1826 15.5438 0 12.2393 0C7.45238 0 3.31829 2.68406 1.30566 6.59056L5.26295 9.59359C6.25576 6.7102 9.00273 4.62403 12.2393 4.62403Z" fill="#EB4335"/>
</g>
<defs>
<clipPath id="clip0_2_1590">
<rect width="24" height="24" fill="white"/>
</clipPath>
</defs>
</svg>
